<svg xmlns="http://www.w3.org/2000/svg" id="flag-icons-en" viewBox="0 0 640 480">
  <defs>
    <clipPath id="en-us"><path d="M0 0H640L0 480Z"/></clipPath>
    <clipPath id="en-gb"><path d="M640 0V480H0Z"/></clipPath>
  </defs>
  <g clip-path="url(#en-us)">
    <svg width="640" height="480" viewBox="0 0 640 480">
      <path fill="#bd3d44" d="M0 0h640v480H0"/>
      <path stroke="#fff" stroke-width="37" d="M0 55.3h640M0 129h640M0 203h640M0 277h640M0 351h640M0 425h640"/>
      <path fill="#192f5d" d="M0 0h364.8v258.5H0"/>
      <marker id="en-us-star" markerHeight="30" markerWidth="30"><path fill="#fff" d="m14 0 9 27L0 10h28L5 27z"/></marker>
      <path fill="none" marker-mid="url(#en-us-star)" d="m0 0 16 11h61 61 61 61 60L47 37h61 61 60 61L16 63h61 61 61 61 60L47 89h61 61 60 61L16 115h61 61 61 61 60L47 141h61 61 60 61L16 166h61 61 61 61 60L47 192h61 61 60 61L16 218h61 61 61 61 60z"/>
    </svg>
  </g>
  <g clip-path="url(#en-gb)">
    <svg width="640" height="480" viewBox="0 0 640 480">
      <path fill="#012169" d="M0 0h640v480H0z"/>
      <path fill="#FFF" d="m75 0 244 181L562 0h78v62L400 241l240 178v61h-80L320 301 81 480H0v-60l239-178L0 64V0z"/>
      <path fill="#C8102E" d="m424 281 216 159v40L369 281zm-184 20 6 35L54 480H0zM640 0v3L391 191l2-44L590 0zM0 0l239 176h-60L0 42z"/>
      <path fill="#FFF" d="M241 0v480h160V0zM0 160v160h640V160z"/>
      <path fill="#C8102E" d="M0 193v96h640v-96zM273 0v480h96V0z"/>
    </svg>
  </g>
  <path d="M640 0L0 480" stroke="#fff" stroke-width="22"/>
</svg>
